%TF.GenerationSoftware,KiCad,Pcbnew,9.0.2*%
%TF.CreationDate,2025-05-19T21:39:43+01:00*%
%TF.ProjectId,grove_adaptor_panel,67726f76-655f-4616-9461-70746f725f70,rev?*%
%TF.SameCoordinates,Original*%
%TF.FileFunction,AssemblyDrawing,Top*%
%FSLAX46Y46*%
G04 Gerber Fmt 4.6, Leading zero omitted, Abs format (unit mm)*
G04 Created by KiCad (PCBNEW 9.0.2) date 2025-05-19 21:39:43*
%MOMM*%
%LPD*%
G01*
G04 APERTURE LIST*
%ADD10C,0.150000*%
%ADD11C,0.100000*%
G04 APERTURE END LIST*
D10*
X136504904Y-115981580D02*
X136457285Y-116029200D01*
X136457285Y-116029200D02*
X136314428Y-116076819D01*
X136314428Y-116076819D02*
X136219190Y-116076819D01*
X136219190Y-116076819D02*
X136076333Y-116029200D01*
X136076333Y-116029200D02*
X135981095Y-115933961D01*
X135981095Y-115933961D02*
X135933476Y-115838723D01*
X135933476Y-115838723D02*
X135885857Y-115648247D01*
X135885857Y-115648247D02*
X135885857Y-115505390D01*
X135885857Y-115505390D02*
X135933476Y-115314914D01*
X135933476Y-115314914D02*
X135981095Y-115219676D01*
X135981095Y-115219676D02*
X136076333Y-115124438D01*
X136076333Y-115124438D02*
X136219190Y-115076819D01*
X136219190Y-115076819D02*
X136314428Y-115076819D01*
X136314428Y-115076819D02*
X136457285Y-115124438D01*
X136457285Y-115124438D02*
X136504904Y-115172057D01*
X137076333Y-116076819D02*
X136981095Y-116029200D01*
X136981095Y-116029200D02*
X136933476Y-115981580D01*
X136933476Y-115981580D02*
X136885857Y-115886342D01*
X136885857Y-115886342D02*
X136885857Y-115600628D01*
X136885857Y-115600628D02*
X136933476Y-115505390D01*
X136933476Y-115505390D02*
X136981095Y-115457771D01*
X136981095Y-115457771D02*
X137076333Y-115410152D01*
X137076333Y-115410152D02*
X137219190Y-115410152D01*
X137219190Y-115410152D02*
X137314428Y-115457771D01*
X137314428Y-115457771D02*
X137362047Y-115505390D01*
X137362047Y-115505390D02*
X137409666Y-115600628D01*
X137409666Y-115600628D02*
X137409666Y-115886342D01*
X137409666Y-115886342D02*
X137362047Y-115981580D01*
X137362047Y-115981580D02*
X137314428Y-116029200D01*
X137314428Y-116029200D02*
X137219190Y-116076819D01*
X137219190Y-116076819D02*
X137076333Y-116076819D01*
X137838238Y-115410152D02*
X137838238Y-116076819D01*
X137838238Y-115505390D02*
X137885857Y-115457771D01*
X137885857Y-115457771D02*
X137981095Y-115410152D01*
X137981095Y-115410152D02*
X138123952Y-115410152D01*
X138123952Y-115410152D02*
X138219190Y-115457771D01*
X138219190Y-115457771D02*
X138266809Y-115553009D01*
X138266809Y-115553009D02*
X138266809Y-116076819D01*
X138743000Y-115410152D02*
X138743000Y-116076819D01*
X138743000Y-115505390D02*
X138790619Y-115457771D01*
X138790619Y-115457771D02*
X138885857Y-115410152D01*
X138885857Y-115410152D02*
X139028714Y-115410152D01*
X139028714Y-115410152D02*
X139123952Y-115457771D01*
X139123952Y-115457771D02*
X139171571Y-115553009D01*
X139171571Y-115553009D02*
X139171571Y-116076819D01*
X139409667Y-116172057D02*
X140171571Y-116172057D01*
X140600143Y-115076819D02*
X140695381Y-115076819D01*
X140695381Y-115076819D02*
X140790619Y-115124438D01*
X140790619Y-115124438D02*
X140838238Y-115172057D01*
X140838238Y-115172057D02*
X140885857Y-115267295D01*
X140885857Y-115267295D02*
X140933476Y-115457771D01*
X140933476Y-115457771D02*
X140933476Y-115695866D01*
X140933476Y-115695866D02*
X140885857Y-115886342D01*
X140885857Y-115886342D02*
X140838238Y-115981580D01*
X140838238Y-115981580D02*
X140790619Y-116029200D01*
X140790619Y-116029200D02*
X140695381Y-116076819D01*
X140695381Y-116076819D02*
X140600143Y-116076819D01*
X140600143Y-116076819D02*
X140504905Y-116029200D01*
X140504905Y-116029200D02*
X140457286Y-115981580D01*
X140457286Y-115981580D02*
X140409667Y-115886342D01*
X140409667Y-115886342D02*
X140362048Y-115695866D01*
X140362048Y-115695866D02*
X140362048Y-115457771D01*
X140362048Y-115457771D02*
X140409667Y-115267295D01*
X140409667Y-115267295D02*
X140457286Y-115172057D01*
X140457286Y-115172057D02*
X140504905Y-115124438D01*
X140504905Y-115124438D02*
X140600143Y-115076819D01*
X141885857Y-116076819D02*
X141314429Y-116076819D01*
X141600143Y-116076819D02*
X141600143Y-115076819D01*
X141600143Y-115076819D02*
X141504905Y-115219676D01*
X141504905Y-115219676D02*
X141409667Y-115314914D01*
X141409667Y-115314914D02*
X141314429Y-115362533D01*
X142219191Y-116076819D02*
X142743000Y-115410152D01*
X142219191Y-115410152D02*
X142743000Y-116076819D01*
X143314429Y-115076819D02*
X143409667Y-115076819D01*
X143409667Y-115076819D02*
X143504905Y-115124438D01*
X143504905Y-115124438D02*
X143552524Y-115172057D01*
X143552524Y-115172057D02*
X143600143Y-115267295D01*
X143600143Y-115267295D02*
X143647762Y-115457771D01*
X143647762Y-115457771D02*
X143647762Y-115695866D01*
X143647762Y-115695866D02*
X143600143Y-115886342D01*
X143600143Y-115886342D02*
X143552524Y-115981580D01*
X143552524Y-115981580D02*
X143504905Y-116029200D01*
X143504905Y-116029200D02*
X143409667Y-116076819D01*
X143409667Y-116076819D02*
X143314429Y-116076819D01*
X143314429Y-116076819D02*
X143219191Y-116029200D01*
X143219191Y-116029200D02*
X143171572Y-115981580D01*
X143171572Y-115981580D02*
X143123953Y-115886342D01*
X143123953Y-115886342D02*
X143076334Y-115695866D01*
X143076334Y-115695866D02*
X143076334Y-115457771D01*
X143076334Y-115457771D02*
X143123953Y-115267295D01*
X143123953Y-115267295D02*
X143171572Y-115172057D01*
X143171572Y-115172057D02*
X143219191Y-115124438D01*
X143219191Y-115124438D02*
X143314429Y-115076819D01*
X144504905Y-115410152D02*
X144504905Y-116076819D01*
X144266810Y-115029200D02*
X144028715Y-115743485D01*
X144028715Y-115743485D02*
X144647762Y-115743485D01*
X139909666Y-113176819D02*
X139909666Y-113891104D01*
X139909666Y-113891104D02*
X139862047Y-114033961D01*
X139862047Y-114033961D02*
X139766809Y-114129200D01*
X139766809Y-114129200D02*
X139623952Y-114176819D01*
X139623952Y-114176819D02*
X139528714Y-114176819D01*
X140909666Y-114176819D02*
X140338238Y-114176819D01*
X140623952Y-114176819D02*
X140623952Y-113176819D01*
X140623952Y-113176819D02*
X140528714Y-113319676D01*
X140528714Y-113319676D02*
X140433476Y-113414914D01*
X140433476Y-113414914D02*
X140338238Y-113462533D01*
X155681904Y-98836580D02*
X155634285Y-98884200D01*
X155634285Y-98884200D02*
X155491428Y-98931819D01*
X155491428Y-98931819D02*
X155396190Y-98931819D01*
X155396190Y-98931819D02*
X155253333Y-98884200D01*
X155253333Y-98884200D02*
X155158095Y-98788961D01*
X155158095Y-98788961D02*
X155110476Y-98693723D01*
X155110476Y-98693723D02*
X155062857Y-98503247D01*
X155062857Y-98503247D02*
X155062857Y-98360390D01*
X155062857Y-98360390D02*
X155110476Y-98169914D01*
X155110476Y-98169914D02*
X155158095Y-98074676D01*
X155158095Y-98074676D02*
X155253333Y-97979438D01*
X155253333Y-97979438D02*
X155396190Y-97931819D01*
X155396190Y-97931819D02*
X155491428Y-97931819D01*
X155491428Y-97931819D02*
X155634285Y-97979438D01*
X155634285Y-97979438D02*
X155681904Y-98027057D01*
X156253333Y-98931819D02*
X156158095Y-98884200D01*
X156158095Y-98884200D02*
X156110476Y-98836580D01*
X156110476Y-98836580D02*
X156062857Y-98741342D01*
X156062857Y-98741342D02*
X156062857Y-98455628D01*
X156062857Y-98455628D02*
X156110476Y-98360390D01*
X156110476Y-98360390D02*
X156158095Y-98312771D01*
X156158095Y-98312771D02*
X156253333Y-98265152D01*
X156253333Y-98265152D02*
X156396190Y-98265152D01*
X156396190Y-98265152D02*
X156491428Y-98312771D01*
X156491428Y-98312771D02*
X156539047Y-98360390D01*
X156539047Y-98360390D02*
X156586666Y-98455628D01*
X156586666Y-98455628D02*
X156586666Y-98741342D01*
X156586666Y-98741342D02*
X156539047Y-98836580D01*
X156539047Y-98836580D02*
X156491428Y-98884200D01*
X156491428Y-98884200D02*
X156396190Y-98931819D01*
X156396190Y-98931819D02*
X156253333Y-98931819D01*
X157015238Y-98265152D02*
X157015238Y-98931819D01*
X157015238Y-98360390D02*
X157062857Y-98312771D01*
X157062857Y-98312771D02*
X157158095Y-98265152D01*
X157158095Y-98265152D02*
X157300952Y-98265152D01*
X157300952Y-98265152D02*
X157396190Y-98312771D01*
X157396190Y-98312771D02*
X157443809Y-98408009D01*
X157443809Y-98408009D02*
X157443809Y-98931819D01*
X157920000Y-98265152D02*
X157920000Y-98931819D01*
X157920000Y-98360390D02*
X157967619Y-98312771D01*
X157967619Y-98312771D02*
X158062857Y-98265152D01*
X158062857Y-98265152D02*
X158205714Y-98265152D01*
X158205714Y-98265152D02*
X158300952Y-98312771D01*
X158300952Y-98312771D02*
X158348571Y-98408009D01*
X158348571Y-98408009D02*
X158348571Y-98931819D01*
X158586667Y-99027057D02*
X159348571Y-99027057D01*
X159777143Y-97931819D02*
X159872381Y-97931819D01*
X159872381Y-97931819D02*
X159967619Y-97979438D01*
X159967619Y-97979438D02*
X160015238Y-98027057D01*
X160015238Y-98027057D02*
X160062857Y-98122295D01*
X160062857Y-98122295D02*
X160110476Y-98312771D01*
X160110476Y-98312771D02*
X160110476Y-98550866D01*
X160110476Y-98550866D02*
X160062857Y-98741342D01*
X160062857Y-98741342D02*
X160015238Y-98836580D01*
X160015238Y-98836580D02*
X159967619Y-98884200D01*
X159967619Y-98884200D02*
X159872381Y-98931819D01*
X159872381Y-98931819D02*
X159777143Y-98931819D01*
X159777143Y-98931819D02*
X159681905Y-98884200D01*
X159681905Y-98884200D02*
X159634286Y-98836580D01*
X159634286Y-98836580D02*
X159586667Y-98741342D01*
X159586667Y-98741342D02*
X159539048Y-98550866D01*
X159539048Y-98550866D02*
X159539048Y-98312771D01*
X159539048Y-98312771D02*
X159586667Y-98122295D01*
X159586667Y-98122295D02*
X159634286Y-98027057D01*
X159634286Y-98027057D02*
X159681905Y-97979438D01*
X159681905Y-97979438D02*
X159777143Y-97931819D01*
X161062857Y-98931819D02*
X160491429Y-98931819D01*
X160777143Y-98931819D02*
X160777143Y-97931819D01*
X160777143Y-97931819D02*
X160681905Y-98074676D01*
X160681905Y-98074676D02*
X160586667Y-98169914D01*
X160586667Y-98169914D02*
X160491429Y-98217533D01*
X161396191Y-98931819D02*
X161920000Y-98265152D01*
X161396191Y-98265152D02*
X161920000Y-98931819D01*
X162491429Y-97931819D02*
X162586667Y-97931819D01*
X162586667Y-97931819D02*
X162681905Y-97979438D01*
X162681905Y-97979438D02*
X162729524Y-98027057D01*
X162729524Y-98027057D02*
X162777143Y-98122295D01*
X162777143Y-98122295D02*
X162824762Y-98312771D01*
X162824762Y-98312771D02*
X162824762Y-98550866D01*
X162824762Y-98550866D02*
X162777143Y-98741342D01*
X162777143Y-98741342D02*
X162729524Y-98836580D01*
X162729524Y-98836580D02*
X162681905Y-98884200D01*
X162681905Y-98884200D02*
X162586667Y-98931819D01*
X162586667Y-98931819D02*
X162491429Y-98931819D01*
X162491429Y-98931819D02*
X162396191Y-98884200D01*
X162396191Y-98884200D02*
X162348572Y-98836580D01*
X162348572Y-98836580D02*
X162300953Y-98741342D01*
X162300953Y-98741342D02*
X162253334Y-98550866D01*
X162253334Y-98550866D02*
X162253334Y-98312771D01*
X162253334Y-98312771D02*
X162300953Y-98122295D01*
X162300953Y-98122295D02*
X162348572Y-98027057D01*
X162348572Y-98027057D02*
X162396191Y-97979438D01*
X162396191Y-97979438D02*
X162491429Y-97931819D01*
X163681905Y-98265152D02*
X163681905Y-98931819D01*
X163443810Y-97884200D02*
X163205715Y-98598485D01*
X163205715Y-98598485D02*
X163824762Y-98598485D01*
X159086666Y-96031819D02*
X159086666Y-96746104D01*
X159086666Y-96746104D02*
X159039047Y-96888961D01*
X159039047Y-96888961D02*
X158943809Y-96984200D01*
X158943809Y-96984200D02*
X158800952Y-97031819D01*
X158800952Y-97031819D02*
X158705714Y-97031819D01*
X160086666Y-97031819D02*
X159515238Y-97031819D01*
X159800952Y-97031819D02*
X159800952Y-96031819D01*
X159800952Y-96031819D02*
X159705714Y-96174676D01*
X159705714Y-96174676D02*
X159610476Y-96269914D01*
X159610476Y-96269914D02*
X159515238Y-96317533D01*
X136504904Y-98836580D02*
X136457285Y-98884200D01*
X136457285Y-98884200D02*
X136314428Y-98931819D01*
X136314428Y-98931819D02*
X136219190Y-98931819D01*
X136219190Y-98931819D02*
X136076333Y-98884200D01*
X136076333Y-98884200D02*
X135981095Y-98788961D01*
X135981095Y-98788961D02*
X135933476Y-98693723D01*
X135933476Y-98693723D02*
X135885857Y-98503247D01*
X135885857Y-98503247D02*
X135885857Y-98360390D01*
X135885857Y-98360390D02*
X135933476Y-98169914D01*
X135933476Y-98169914D02*
X135981095Y-98074676D01*
X135981095Y-98074676D02*
X136076333Y-97979438D01*
X136076333Y-97979438D02*
X136219190Y-97931819D01*
X136219190Y-97931819D02*
X136314428Y-97931819D01*
X136314428Y-97931819D02*
X136457285Y-97979438D01*
X136457285Y-97979438D02*
X136504904Y-98027057D01*
X137076333Y-98931819D02*
X136981095Y-98884200D01*
X136981095Y-98884200D02*
X136933476Y-98836580D01*
X136933476Y-98836580D02*
X136885857Y-98741342D01*
X136885857Y-98741342D02*
X136885857Y-98455628D01*
X136885857Y-98455628D02*
X136933476Y-98360390D01*
X136933476Y-98360390D02*
X136981095Y-98312771D01*
X136981095Y-98312771D02*
X137076333Y-98265152D01*
X137076333Y-98265152D02*
X137219190Y-98265152D01*
X137219190Y-98265152D02*
X137314428Y-98312771D01*
X137314428Y-98312771D02*
X137362047Y-98360390D01*
X137362047Y-98360390D02*
X137409666Y-98455628D01*
X137409666Y-98455628D02*
X137409666Y-98741342D01*
X137409666Y-98741342D02*
X137362047Y-98836580D01*
X137362047Y-98836580D02*
X137314428Y-98884200D01*
X137314428Y-98884200D02*
X137219190Y-98931819D01*
X137219190Y-98931819D02*
X137076333Y-98931819D01*
X137838238Y-98265152D02*
X137838238Y-98931819D01*
X137838238Y-98360390D02*
X137885857Y-98312771D01*
X137885857Y-98312771D02*
X137981095Y-98265152D01*
X137981095Y-98265152D02*
X138123952Y-98265152D01*
X138123952Y-98265152D02*
X138219190Y-98312771D01*
X138219190Y-98312771D02*
X138266809Y-98408009D01*
X138266809Y-98408009D02*
X138266809Y-98931819D01*
X138743000Y-98265152D02*
X138743000Y-98931819D01*
X138743000Y-98360390D02*
X138790619Y-98312771D01*
X138790619Y-98312771D02*
X138885857Y-98265152D01*
X138885857Y-98265152D02*
X139028714Y-98265152D01*
X139028714Y-98265152D02*
X139123952Y-98312771D01*
X139123952Y-98312771D02*
X139171571Y-98408009D01*
X139171571Y-98408009D02*
X139171571Y-98931819D01*
X139409667Y-99027057D02*
X140171571Y-99027057D01*
X140600143Y-97931819D02*
X140695381Y-97931819D01*
X140695381Y-97931819D02*
X140790619Y-97979438D01*
X140790619Y-97979438D02*
X140838238Y-98027057D01*
X140838238Y-98027057D02*
X140885857Y-98122295D01*
X140885857Y-98122295D02*
X140933476Y-98312771D01*
X140933476Y-98312771D02*
X140933476Y-98550866D01*
X140933476Y-98550866D02*
X140885857Y-98741342D01*
X140885857Y-98741342D02*
X140838238Y-98836580D01*
X140838238Y-98836580D02*
X140790619Y-98884200D01*
X140790619Y-98884200D02*
X140695381Y-98931819D01*
X140695381Y-98931819D02*
X140600143Y-98931819D01*
X140600143Y-98931819D02*
X140504905Y-98884200D01*
X140504905Y-98884200D02*
X140457286Y-98836580D01*
X140457286Y-98836580D02*
X140409667Y-98741342D01*
X140409667Y-98741342D02*
X140362048Y-98550866D01*
X140362048Y-98550866D02*
X140362048Y-98312771D01*
X140362048Y-98312771D02*
X140409667Y-98122295D01*
X140409667Y-98122295D02*
X140457286Y-98027057D01*
X140457286Y-98027057D02*
X140504905Y-97979438D01*
X140504905Y-97979438D02*
X140600143Y-97931819D01*
X141885857Y-98931819D02*
X141314429Y-98931819D01*
X141600143Y-98931819D02*
X141600143Y-97931819D01*
X141600143Y-97931819D02*
X141504905Y-98074676D01*
X141504905Y-98074676D02*
X141409667Y-98169914D01*
X141409667Y-98169914D02*
X141314429Y-98217533D01*
X142219191Y-98931819D02*
X142743000Y-98265152D01*
X142219191Y-98265152D02*
X142743000Y-98931819D01*
X143314429Y-97931819D02*
X143409667Y-97931819D01*
X143409667Y-97931819D02*
X143504905Y-97979438D01*
X143504905Y-97979438D02*
X143552524Y-98027057D01*
X143552524Y-98027057D02*
X143600143Y-98122295D01*
X143600143Y-98122295D02*
X143647762Y-98312771D01*
X143647762Y-98312771D02*
X143647762Y-98550866D01*
X143647762Y-98550866D02*
X143600143Y-98741342D01*
X143600143Y-98741342D02*
X143552524Y-98836580D01*
X143552524Y-98836580D02*
X143504905Y-98884200D01*
X143504905Y-98884200D02*
X143409667Y-98931819D01*
X143409667Y-98931819D02*
X143314429Y-98931819D01*
X143314429Y-98931819D02*
X143219191Y-98884200D01*
X143219191Y-98884200D02*
X143171572Y-98836580D01*
X143171572Y-98836580D02*
X143123953Y-98741342D01*
X143123953Y-98741342D02*
X143076334Y-98550866D01*
X143076334Y-98550866D02*
X143076334Y-98312771D01*
X143076334Y-98312771D02*
X143123953Y-98122295D01*
X143123953Y-98122295D02*
X143171572Y-98027057D01*
X143171572Y-98027057D02*
X143219191Y-97979438D01*
X143219191Y-97979438D02*
X143314429Y-97931819D01*
X144504905Y-98265152D02*
X144504905Y-98931819D01*
X144266810Y-97884200D02*
X144028715Y-98598485D01*
X144028715Y-98598485D02*
X144647762Y-98598485D01*
X139909666Y-96031819D02*
X139909666Y-96746104D01*
X139909666Y-96746104D02*
X139862047Y-96888961D01*
X139862047Y-96888961D02*
X139766809Y-96984200D01*
X139766809Y-96984200D02*
X139623952Y-97031819D01*
X139623952Y-97031819D02*
X139528714Y-97031819D01*
X140909666Y-97031819D02*
X140338238Y-97031819D01*
X140623952Y-97031819D02*
X140623952Y-96031819D01*
X140623952Y-96031819D02*
X140528714Y-96174676D01*
X140528714Y-96174676D02*
X140433476Y-96269914D01*
X140433476Y-96269914D02*
X140338238Y-96317533D01*
X117391404Y-115918080D02*
X117343785Y-115965700D01*
X117343785Y-115965700D02*
X117200928Y-116013319D01*
X117200928Y-116013319D02*
X117105690Y-116013319D01*
X117105690Y-116013319D02*
X116962833Y-115965700D01*
X116962833Y-115965700D02*
X116867595Y-115870461D01*
X116867595Y-115870461D02*
X116819976Y-115775223D01*
X116819976Y-115775223D02*
X116772357Y-115584747D01*
X116772357Y-115584747D02*
X116772357Y-115441890D01*
X116772357Y-115441890D02*
X116819976Y-115251414D01*
X116819976Y-115251414D02*
X116867595Y-115156176D01*
X116867595Y-115156176D02*
X116962833Y-115060938D01*
X116962833Y-115060938D02*
X117105690Y-115013319D01*
X117105690Y-115013319D02*
X117200928Y-115013319D01*
X117200928Y-115013319D02*
X117343785Y-115060938D01*
X117343785Y-115060938D02*
X117391404Y-115108557D01*
X117962833Y-116013319D02*
X117867595Y-115965700D01*
X117867595Y-115965700D02*
X117819976Y-115918080D01*
X117819976Y-115918080D02*
X117772357Y-115822842D01*
X117772357Y-115822842D02*
X117772357Y-115537128D01*
X117772357Y-115537128D02*
X117819976Y-115441890D01*
X117819976Y-115441890D02*
X117867595Y-115394271D01*
X117867595Y-115394271D02*
X117962833Y-115346652D01*
X117962833Y-115346652D02*
X118105690Y-115346652D01*
X118105690Y-115346652D02*
X118200928Y-115394271D01*
X118200928Y-115394271D02*
X118248547Y-115441890D01*
X118248547Y-115441890D02*
X118296166Y-115537128D01*
X118296166Y-115537128D02*
X118296166Y-115822842D01*
X118296166Y-115822842D02*
X118248547Y-115918080D01*
X118248547Y-115918080D02*
X118200928Y-115965700D01*
X118200928Y-115965700D02*
X118105690Y-116013319D01*
X118105690Y-116013319D02*
X117962833Y-116013319D01*
X118724738Y-115346652D02*
X118724738Y-116013319D01*
X118724738Y-115441890D02*
X118772357Y-115394271D01*
X118772357Y-115394271D02*
X118867595Y-115346652D01*
X118867595Y-115346652D02*
X119010452Y-115346652D01*
X119010452Y-115346652D02*
X119105690Y-115394271D01*
X119105690Y-115394271D02*
X119153309Y-115489509D01*
X119153309Y-115489509D02*
X119153309Y-116013319D01*
X119629500Y-115346652D02*
X119629500Y-116013319D01*
X119629500Y-115441890D02*
X119677119Y-115394271D01*
X119677119Y-115394271D02*
X119772357Y-115346652D01*
X119772357Y-115346652D02*
X119915214Y-115346652D01*
X119915214Y-115346652D02*
X120010452Y-115394271D01*
X120010452Y-115394271D02*
X120058071Y-115489509D01*
X120058071Y-115489509D02*
X120058071Y-116013319D01*
X120296167Y-116108557D02*
X121058071Y-116108557D01*
X121486643Y-115013319D02*
X121581881Y-115013319D01*
X121581881Y-115013319D02*
X121677119Y-115060938D01*
X121677119Y-115060938D02*
X121724738Y-115108557D01*
X121724738Y-115108557D02*
X121772357Y-115203795D01*
X121772357Y-115203795D02*
X121819976Y-115394271D01*
X121819976Y-115394271D02*
X121819976Y-115632366D01*
X121819976Y-115632366D02*
X121772357Y-115822842D01*
X121772357Y-115822842D02*
X121724738Y-115918080D01*
X121724738Y-115918080D02*
X121677119Y-115965700D01*
X121677119Y-115965700D02*
X121581881Y-116013319D01*
X121581881Y-116013319D02*
X121486643Y-116013319D01*
X121486643Y-116013319D02*
X121391405Y-115965700D01*
X121391405Y-115965700D02*
X121343786Y-115918080D01*
X121343786Y-115918080D02*
X121296167Y-115822842D01*
X121296167Y-115822842D02*
X121248548Y-115632366D01*
X121248548Y-115632366D02*
X121248548Y-115394271D01*
X121248548Y-115394271D02*
X121296167Y-115203795D01*
X121296167Y-115203795D02*
X121343786Y-115108557D01*
X121343786Y-115108557D02*
X121391405Y-115060938D01*
X121391405Y-115060938D02*
X121486643Y-115013319D01*
X122772357Y-116013319D02*
X122200929Y-116013319D01*
X122486643Y-116013319D02*
X122486643Y-115013319D01*
X122486643Y-115013319D02*
X122391405Y-115156176D01*
X122391405Y-115156176D02*
X122296167Y-115251414D01*
X122296167Y-115251414D02*
X122200929Y-115299033D01*
X123105691Y-116013319D02*
X123629500Y-115346652D01*
X123105691Y-115346652D02*
X123629500Y-116013319D01*
X124200929Y-115013319D02*
X124296167Y-115013319D01*
X124296167Y-115013319D02*
X124391405Y-115060938D01*
X124391405Y-115060938D02*
X124439024Y-115108557D01*
X124439024Y-115108557D02*
X124486643Y-115203795D01*
X124486643Y-115203795D02*
X124534262Y-115394271D01*
X124534262Y-115394271D02*
X124534262Y-115632366D01*
X124534262Y-115632366D02*
X124486643Y-115822842D01*
X124486643Y-115822842D02*
X124439024Y-115918080D01*
X124439024Y-115918080D02*
X124391405Y-115965700D01*
X124391405Y-115965700D02*
X124296167Y-116013319D01*
X124296167Y-116013319D02*
X124200929Y-116013319D01*
X124200929Y-116013319D02*
X124105691Y-115965700D01*
X124105691Y-115965700D02*
X124058072Y-115918080D01*
X124058072Y-115918080D02*
X124010453Y-115822842D01*
X124010453Y-115822842D02*
X123962834Y-115632366D01*
X123962834Y-115632366D02*
X123962834Y-115394271D01*
X123962834Y-115394271D02*
X124010453Y-115203795D01*
X124010453Y-115203795D02*
X124058072Y-115108557D01*
X124058072Y-115108557D02*
X124105691Y-115060938D01*
X124105691Y-115060938D02*
X124200929Y-115013319D01*
X125391405Y-115346652D02*
X125391405Y-116013319D01*
X125153310Y-114965700D02*
X124915215Y-115679985D01*
X124915215Y-115679985D02*
X125534262Y-115679985D01*
X120796166Y-113113319D02*
X120796166Y-113827604D01*
X120796166Y-113827604D02*
X120748547Y-113970461D01*
X120748547Y-113970461D02*
X120653309Y-114065700D01*
X120653309Y-114065700D02*
X120510452Y-114113319D01*
X120510452Y-114113319D02*
X120415214Y-114113319D01*
X121796166Y-114113319D02*
X121224738Y-114113319D01*
X121510452Y-114113319D02*
X121510452Y-113113319D01*
X121510452Y-113113319D02*
X121415214Y-113256176D01*
X121415214Y-113256176D02*
X121319976Y-113351414D01*
X121319976Y-113351414D02*
X121224738Y-113399033D01*
X98160904Y-133025080D02*
X98113285Y-133072700D01*
X98113285Y-133072700D02*
X97970428Y-133120319D01*
X97970428Y-133120319D02*
X97875190Y-133120319D01*
X97875190Y-133120319D02*
X97732333Y-133072700D01*
X97732333Y-133072700D02*
X97637095Y-132977461D01*
X97637095Y-132977461D02*
X97589476Y-132882223D01*
X97589476Y-132882223D02*
X97541857Y-132691747D01*
X97541857Y-132691747D02*
X97541857Y-132548890D01*
X97541857Y-132548890D02*
X97589476Y-132358414D01*
X97589476Y-132358414D02*
X97637095Y-132263176D01*
X97637095Y-132263176D02*
X97732333Y-132167938D01*
X97732333Y-132167938D02*
X97875190Y-132120319D01*
X97875190Y-132120319D02*
X97970428Y-132120319D01*
X97970428Y-132120319D02*
X98113285Y-132167938D01*
X98113285Y-132167938D02*
X98160904Y-132215557D01*
X98732333Y-133120319D02*
X98637095Y-133072700D01*
X98637095Y-133072700D02*
X98589476Y-133025080D01*
X98589476Y-133025080D02*
X98541857Y-132929842D01*
X98541857Y-132929842D02*
X98541857Y-132644128D01*
X98541857Y-132644128D02*
X98589476Y-132548890D01*
X98589476Y-132548890D02*
X98637095Y-132501271D01*
X98637095Y-132501271D02*
X98732333Y-132453652D01*
X98732333Y-132453652D02*
X98875190Y-132453652D01*
X98875190Y-132453652D02*
X98970428Y-132501271D01*
X98970428Y-132501271D02*
X99018047Y-132548890D01*
X99018047Y-132548890D02*
X99065666Y-132644128D01*
X99065666Y-132644128D02*
X99065666Y-132929842D01*
X99065666Y-132929842D02*
X99018047Y-133025080D01*
X99018047Y-133025080D02*
X98970428Y-133072700D01*
X98970428Y-133072700D02*
X98875190Y-133120319D01*
X98875190Y-133120319D02*
X98732333Y-133120319D01*
X99494238Y-132453652D02*
X99494238Y-133120319D01*
X99494238Y-132548890D02*
X99541857Y-132501271D01*
X99541857Y-132501271D02*
X99637095Y-132453652D01*
X99637095Y-132453652D02*
X99779952Y-132453652D01*
X99779952Y-132453652D02*
X99875190Y-132501271D01*
X99875190Y-132501271D02*
X99922809Y-132596509D01*
X99922809Y-132596509D02*
X99922809Y-133120319D01*
X100399000Y-132453652D02*
X100399000Y-133120319D01*
X100399000Y-132548890D02*
X100446619Y-132501271D01*
X100446619Y-132501271D02*
X100541857Y-132453652D01*
X100541857Y-132453652D02*
X100684714Y-132453652D01*
X100684714Y-132453652D02*
X100779952Y-132501271D01*
X100779952Y-132501271D02*
X100827571Y-132596509D01*
X100827571Y-132596509D02*
X100827571Y-133120319D01*
X101065667Y-133215557D02*
X101827571Y-133215557D01*
X102256143Y-132120319D02*
X102351381Y-132120319D01*
X102351381Y-132120319D02*
X102446619Y-132167938D01*
X102446619Y-132167938D02*
X102494238Y-132215557D01*
X102494238Y-132215557D02*
X102541857Y-132310795D01*
X102541857Y-132310795D02*
X102589476Y-132501271D01*
X102589476Y-132501271D02*
X102589476Y-132739366D01*
X102589476Y-132739366D02*
X102541857Y-132929842D01*
X102541857Y-132929842D02*
X102494238Y-133025080D01*
X102494238Y-133025080D02*
X102446619Y-133072700D01*
X102446619Y-133072700D02*
X102351381Y-133120319D01*
X102351381Y-133120319D02*
X102256143Y-133120319D01*
X102256143Y-133120319D02*
X102160905Y-133072700D01*
X102160905Y-133072700D02*
X102113286Y-133025080D01*
X102113286Y-133025080D02*
X102065667Y-132929842D01*
X102065667Y-132929842D02*
X102018048Y-132739366D01*
X102018048Y-132739366D02*
X102018048Y-132501271D01*
X102018048Y-132501271D02*
X102065667Y-132310795D01*
X102065667Y-132310795D02*
X102113286Y-132215557D01*
X102113286Y-132215557D02*
X102160905Y-132167938D01*
X102160905Y-132167938D02*
X102256143Y-132120319D01*
X103541857Y-133120319D02*
X102970429Y-133120319D01*
X103256143Y-133120319D02*
X103256143Y-132120319D01*
X103256143Y-132120319D02*
X103160905Y-132263176D01*
X103160905Y-132263176D02*
X103065667Y-132358414D01*
X103065667Y-132358414D02*
X102970429Y-132406033D01*
X103875191Y-133120319D02*
X104399000Y-132453652D01*
X103875191Y-132453652D02*
X104399000Y-133120319D01*
X104970429Y-132120319D02*
X105065667Y-132120319D01*
X105065667Y-132120319D02*
X105160905Y-132167938D01*
X105160905Y-132167938D02*
X105208524Y-132215557D01*
X105208524Y-132215557D02*
X105256143Y-132310795D01*
X105256143Y-132310795D02*
X105303762Y-132501271D01*
X105303762Y-132501271D02*
X105303762Y-132739366D01*
X105303762Y-132739366D02*
X105256143Y-132929842D01*
X105256143Y-132929842D02*
X105208524Y-133025080D01*
X105208524Y-133025080D02*
X105160905Y-133072700D01*
X105160905Y-133072700D02*
X105065667Y-133120319D01*
X105065667Y-133120319D02*
X104970429Y-133120319D01*
X104970429Y-133120319D02*
X104875191Y-133072700D01*
X104875191Y-133072700D02*
X104827572Y-133025080D01*
X104827572Y-133025080D02*
X104779953Y-132929842D01*
X104779953Y-132929842D02*
X104732334Y-132739366D01*
X104732334Y-132739366D02*
X104732334Y-132501271D01*
X104732334Y-132501271D02*
X104779953Y-132310795D01*
X104779953Y-132310795D02*
X104827572Y-132215557D01*
X104827572Y-132215557D02*
X104875191Y-132167938D01*
X104875191Y-132167938D02*
X104970429Y-132120319D01*
X106160905Y-132453652D02*
X106160905Y-133120319D01*
X105922810Y-132072700D02*
X105684715Y-132786985D01*
X105684715Y-132786985D02*
X106303762Y-132786985D01*
X101565666Y-130220319D02*
X101565666Y-130934604D01*
X101565666Y-130934604D02*
X101518047Y-131077461D01*
X101518047Y-131077461D02*
X101422809Y-131172700D01*
X101422809Y-131172700D02*
X101279952Y-131220319D01*
X101279952Y-131220319D02*
X101184714Y-131220319D01*
X102565666Y-131220319D02*
X101994238Y-131220319D01*
X102279952Y-131220319D02*
X102279952Y-130220319D01*
X102279952Y-130220319D02*
X102184714Y-130363176D01*
X102184714Y-130363176D02*
X102089476Y-130458414D01*
X102089476Y-130458414D02*
X101994238Y-130506033D01*
X98287904Y-115880080D02*
X98240285Y-115927700D01*
X98240285Y-115927700D02*
X98097428Y-115975319D01*
X98097428Y-115975319D02*
X98002190Y-115975319D01*
X98002190Y-115975319D02*
X97859333Y-115927700D01*
X97859333Y-115927700D02*
X97764095Y-115832461D01*
X97764095Y-115832461D02*
X97716476Y-115737223D01*
X97716476Y-115737223D02*
X97668857Y-115546747D01*
X97668857Y-115546747D02*
X97668857Y-115403890D01*
X97668857Y-115403890D02*
X97716476Y-115213414D01*
X97716476Y-115213414D02*
X97764095Y-115118176D01*
X97764095Y-115118176D02*
X97859333Y-115022938D01*
X97859333Y-115022938D02*
X98002190Y-114975319D01*
X98002190Y-114975319D02*
X98097428Y-114975319D01*
X98097428Y-114975319D02*
X98240285Y-115022938D01*
X98240285Y-115022938D02*
X98287904Y-115070557D01*
X98859333Y-115975319D02*
X98764095Y-115927700D01*
X98764095Y-115927700D02*
X98716476Y-115880080D01*
X98716476Y-115880080D02*
X98668857Y-115784842D01*
X98668857Y-115784842D02*
X98668857Y-115499128D01*
X98668857Y-115499128D02*
X98716476Y-115403890D01*
X98716476Y-115403890D02*
X98764095Y-115356271D01*
X98764095Y-115356271D02*
X98859333Y-115308652D01*
X98859333Y-115308652D02*
X99002190Y-115308652D01*
X99002190Y-115308652D02*
X99097428Y-115356271D01*
X99097428Y-115356271D02*
X99145047Y-115403890D01*
X99145047Y-115403890D02*
X99192666Y-115499128D01*
X99192666Y-115499128D02*
X99192666Y-115784842D01*
X99192666Y-115784842D02*
X99145047Y-115880080D01*
X99145047Y-115880080D02*
X99097428Y-115927700D01*
X99097428Y-115927700D02*
X99002190Y-115975319D01*
X99002190Y-115975319D02*
X98859333Y-115975319D01*
X99621238Y-115308652D02*
X99621238Y-115975319D01*
X99621238Y-115403890D02*
X99668857Y-115356271D01*
X99668857Y-115356271D02*
X99764095Y-115308652D01*
X99764095Y-115308652D02*
X99906952Y-115308652D01*
X99906952Y-115308652D02*
X100002190Y-115356271D01*
X100002190Y-115356271D02*
X100049809Y-115451509D01*
X100049809Y-115451509D02*
X100049809Y-115975319D01*
X100526000Y-115308652D02*
X100526000Y-115975319D01*
X100526000Y-115403890D02*
X100573619Y-115356271D01*
X100573619Y-115356271D02*
X100668857Y-115308652D01*
X100668857Y-115308652D02*
X100811714Y-115308652D01*
X100811714Y-115308652D02*
X100906952Y-115356271D01*
X100906952Y-115356271D02*
X100954571Y-115451509D01*
X100954571Y-115451509D02*
X100954571Y-115975319D01*
X101192667Y-116070557D02*
X101954571Y-116070557D01*
X102383143Y-114975319D02*
X102478381Y-114975319D01*
X102478381Y-114975319D02*
X102573619Y-115022938D01*
X102573619Y-115022938D02*
X102621238Y-115070557D01*
X102621238Y-115070557D02*
X102668857Y-115165795D01*
X102668857Y-115165795D02*
X102716476Y-115356271D01*
X102716476Y-115356271D02*
X102716476Y-115594366D01*
X102716476Y-115594366D02*
X102668857Y-115784842D01*
X102668857Y-115784842D02*
X102621238Y-115880080D01*
X102621238Y-115880080D02*
X102573619Y-115927700D01*
X102573619Y-115927700D02*
X102478381Y-115975319D01*
X102478381Y-115975319D02*
X102383143Y-115975319D01*
X102383143Y-115975319D02*
X102287905Y-115927700D01*
X102287905Y-115927700D02*
X102240286Y-115880080D01*
X102240286Y-115880080D02*
X102192667Y-115784842D01*
X102192667Y-115784842D02*
X102145048Y-115594366D01*
X102145048Y-115594366D02*
X102145048Y-115356271D01*
X102145048Y-115356271D02*
X102192667Y-115165795D01*
X102192667Y-115165795D02*
X102240286Y-115070557D01*
X102240286Y-115070557D02*
X102287905Y-115022938D01*
X102287905Y-115022938D02*
X102383143Y-114975319D01*
X103668857Y-115975319D02*
X103097429Y-115975319D01*
X103383143Y-115975319D02*
X103383143Y-114975319D01*
X103383143Y-114975319D02*
X103287905Y-115118176D01*
X103287905Y-115118176D02*
X103192667Y-115213414D01*
X103192667Y-115213414D02*
X103097429Y-115261033D01*
X104002191Y-115975319D02*
X104526000Y-115308652D01*
X104002191Y-115308652D02*
X104526000Y-115975319D01*
X105097429Y-114975319D02*
X105192667Y-114975319D01*
X105192667Y-114975319D02*
X105287905Y-115022938D01*
X105287905Y-115022938D02*
X105335524Y-115070557D01*
X105335524Y-115070557D02*
X105383143Y-115165795D01*
X105383143Y-115165795D02*
X105430762Y-115356271D01*
X105430762Y-115356271D02*
X105430762Y-115594366D01*
X105430762Y-115594366D02*
X105383143Y-115784842D01*
X105383143Y-115784842D02*
X105335524Y-115880080D01*
X105335524Y-115880080D02*
X105287905Y-115927700D01*
X105287905Y-115927700D02*
X105192667Y-115975319D01*
X105192667Y-115975319D02*
X105097429Y-115975319D01*
X105097429Y-115975319D02*
X105002191Y-115927700D01*
X105002191Y-115927700D02*
X104954572Y-115880080D01*
X104954572Y-115880080D02*
X104906953Y-115784842D01*
X104906953Y-115784842D02*
X104859334Y-115594366D01*
X104859334Y-115594366D02*
X104859334Y-115356271D01*
X104859334Y-115356271D02*
X104906953Y-115165795D01*
X104906953Y-115165795D02*
X104954572Y-115070557D01*
X104954572Y-115070557D02*
X105002191Y-115022938D01*
X105002191Y-115022938D02*
X105097429Y-114975319D01*
X106287905Y-115308652D02*
X106287905Y-115975319D01*
X106049810Y-114927700D02*
X105811715Y-115641985D01*
X105811715Y-115641985D02*
X106430762Y-115641985D01*
X101692666Y-113075319D02*
X101692666Y-113789604D01*
X101692666Y-113789604D02*
X101645047Y-113932461D01*
X101645047Y-113932461D02*
X101549809Y-114027700D01*
X101549809Y-114027700D02*
X101406952Y-114075319D01*
X101406952Y-114075319D02*
X101311714Y-114075319D01*
X102692666Y-114075319D02*
X102121238Y-114075319D01*
X102406952Y-114075319D02*
X102406952Y-113075319D01*
X102406952Y-113075319D02*
X102311714Y-113218176D01*
X102311714Y-113218176D02*
X102216476Y-113313414D01*
X102216476Y-113313414D02*
X102121238Y-113361033D01*
X155471404Y-133047080D02*
X155423785Y-133094700D01*
X155423785Y-133094700D02*
X155280928Y-133142319D01*
X155280928Y-133142319D02*
X155185690Y-133142319D01*
X155185690Y-133142319D02*
X155042833Y-133094700D01*
X155042833Y-133094700D02*
X154947595Y-132999461D01*
X154947595Y-132999461D02*
X154899976Y-132904223D01*
X154899976Y-132904223D02*
X154852357Y-132713747D01*
X154852357Y-132713747D02*
X154852357Y-132570890D01*
X154852357Y-132570890D02*
X154899976Y-132380414D01*
X154899976Y-132380414D02*
X154947595Y-132285176D01*
X154947595Y-132285176D02*
X155042833Y-132189938D01*
X155042833Y-132189938D02*
X155185690Y-132142319D01*
X155185690Y-132142319D02*
X155280928Y-132142319D01*
X155280928Y-132142319D02*
X155423785Y-132189938D01*
X155423785Y-132189938D02*
X155471404Y-132237557D01*
X156042833Y-133142319D02*
X155947595Y-133094700D01*
X155947595Y-133094700D02*
X155899976Y-133047080D01*
X155899976Y-133047080D02*
X155852357Y-132951842D01*
X155852357Y-132951842D02*
X155852357Y-132666128D01*
X155852357Y-132666128D02*
X155899976Y-132570890D01*
X155899976Y-132570890D02*
X155947595Y-132523271D01*
X155947595Y-132523271D02*
X156042833Y-132475652D01*
X156042833Y-132475652D02*
X156185690Y-132475652D01*
X156185690Y-132475652D02*
X156280928Y-132523271D01*
X156280928Y-132523271D02*
X156328547Y-132570890D01*
X156328547Y-132570890D02*
X156376166Y-132666128D01*
X156376166Y-132666128D02*
X156376166Y-132951842D01*
X156376166Y-132951842D02*
X156328547Y-133047080D01*
X156328547Y-133047080D02*
X156280928Y-133094700D01*
X156280928Y-133094700D02*
X156185690Y-133142319D01*
X156185690Y-133142319D02*
X156042833Y-133142319D01*
X156804738Y-132475652D02*
X156804738Y-133142319D01*
X156804738Y-132570890D02*
X156852357Y-132523271D01*
X156852357Y-132523271D02*
X156947595Y-132475652D01*
X156947595Y-132475652D02*
X157090452Y-132475652D01*
X157090452Y-132475652D02*
X157185690Y-132523271D01*
X157185690Y-132523271D02*
X157233309Y-132618509D01*
X157233309Y-132618509D02*
X157233309Y-133142319D01*
X157709500Y-132475652D02*
X157709500Y-133142319D01*
X157709500Y-132570890D02*
X157757119Y-132523271D01*
X157757119Y-132523271D02*
X157852357Y-132475652D01*
X157852357Y-132475652D02*
X157995214Y-132475652D01*
X157995214Y-132475652D02*
X158090452Y-132523271D01*
X158090452Y-132523271D02*
X158138071Y-132618509D01*
X158138071Y-132618509D02*
X158138071Y-133142319D01*
X158376167Y-133237557D02*
X159138071Y-133237557D01*
X159566643Y-132142319D02*
X159661881Y-132142319D01*
X159661881Y-132142319D02*
X159757119Y-132189938D01*
X159757119Y-132189938D02*
X159804738Y-132237557D01*
X159804738Y-132237557D02*
X159852357Y-132332795D01*
X159852357Y-132332795D02*
X159899976Y-132523271D01*
X159899976Y-132523271D02*
X159899976Y-132761366D01*
X159899976Y-132761366D02*
X159852357Y-132951842D01*
X159852357Y-132951842D02*
X159804738Y-133047080D01*
X159804738Y-133047080D02*
X159757119Y-133094700D01*
X159757119Y-133094700D02*
X159661881Y-133142319D01*
X159661881Y-133142319D02*
X159566643Y-133142319D01*
X159566643Y-133142319D02*
X159471405Y-133094700D01*
X159471405Y-133094700D02*
X159423786Y-133047080D01*
X159423786Y-133047080D02*
X159376167Y-132951842D01*
X159376167Y-132951842D02*
X159328548Y-132761366D01*
X159328548Y-132761366D02*
X159328548Y-132523271D01*
X159328548Y-132523271D02*
X159376167Y-132332795D01*
X159376167Y-132332795D02*
X159423786Y-132237557D01*
X159423786Y-132237557D02*
X159471405Y-132189938D01*
X159471405Y-132189938D02*
X159566643Y-132142319D01*
X160852357Y-133142319D02*
X160280929Y-133142319D01*
X160566643Y-133142319D02*
X160566643Y-132142319D01*
X160566643Y-132142319D02*
X160471405Y-132285176D01*
X160471405Y-132285176D02*
X160376167Y-132380414D01*
X160376167Y-132380414D02*
X160280929Y-132428033D01*
X161185691Y-133142319D02*
X161709500Y-132475652D01*
X161185691Y-132475652D02*
X161709500Y-133142319D01*
X162280929Y-132142319D02*
X162376167Y-132142319D01*
X162376167Y-132142319D02*
X162471405Y-132189938D01*
X162471405Y-132189938D02*
X162519024Y-132237557D01*
X162519024Y-132237557D02*
X162566643Y-132332795D01*
X162566643Y-132332795D02*
X162614262Y-132523271D01*
X162614262Y-132523271D02*
X162614262Y-132761366D01*
X162614262Y-132761366D02*
X162566643Y-132951842D01*
X162566643Y-132951842D02*
X162519024Y-133047080D01*
X162519024Y-133047080D02*
X162471405Y-133094700D01*
X162471405Y-133094700D02*
X162376167Y-133142319D01*
X162376167Y-133142319D02*
X162280929Y-133142319D01*
X162280929Y-133142319D02*
X162185691Y-133094700D01*
X162185691Y-133094700D02*
X162138072Y-133047080D01*
X162138072Y-133047080D02*
X162090453Y-132951842D01*
X162090453Y-132951842D02*
X162042834Y-132761366D01*
X162042834Y-132761366D02*
X162042834Y-132523271D01*
X162042834Y-132523271D02*
X162090453Y-132332795D01*
X162090453Y-132332795D02*
X162138072Y-132237557D01*
X162138072Y-132237557D02*
X162185691Y-132189938D01*
X162185691Y-132189938D02*
X162280929Y-132142319D01*
X163471405Y-132475652D02*
X163471405Y-133142319D01*
X163233310Y-132094700D02*
X162995215Y-132808985D01*
X162995215Y-132808985D02*
X163614262Y-132808985D01*
X158876166Y-130242319D02*
X158876166Y-130956604D01*
X158876166Y-130956604D02*
X158828547Y-131099461D01*
X158828547Y-131099461D02*
X158733309Y-131194700D01*
X158733309Y-131194700D02*
X158590452Y-131242319D01*
X158590452Y-131242319D02*
X158495214Y-131242319D01*
X159876166Y-131242319D02*
X159304738Y-131242319D01*
X159590452Y-131242319D02*
X159590452Y-130242319D01*
X159590452Y-130242319D02*
X159495214Y-130385176D01*
X159495214Y-130385176D02*
X159399976Y-130480414D01*
X159399976Y-130480414D02*
X159304738Y-130528033D01*
X136367904Y-133110580D02*
X136320285Y-133158200D01*
X136320285Y-133158200D02*
X136177428Y-133205819D01*
X136177428Y-133205819D02*
X136082190Y-133205819D01*
X136082190Y-133205819D02*
X135939333Y-133158200D01*
X135939333Y-133158200D02*
X135844095Y-133062961D01*
X135844095Y-133062961D02*
X135796476Y-132967723D01*
X135796476Y-132967723D02*
X135748857Y-132777247D01*
X135748857Y-132777247D02*
X135748857Y-132634390D01*
X135748857Y-132634390D02*
X135796476Y-132443914D01*
X135796476Y-132443914D02*
X135844095Y-132348676D01*
X135844095Y-132348676D02*
X135939333Y-132253438D01*
X135939333Y-132253438D02*
X136082190Y-132205819D01*
X136082190Y-132205819D02*
X136177428Y-132205819D01*
X136177428Y-132205819D02*
X136320285Y-132253438D01*
X136320285Y-132253438D02*
X136367904Y-132301057D01*
X136939333Y-133205819D02*
X136844095Y-133158200D01*
X136844095Y-133158200D02*
X136796476Y-133110580D01*
X136796476Y-133110580D02*
X136748857Y-133015342D01*
X136748857Y-133015342D02*
X136748857Y-132729628D01*
X136748857Y-132729628D02*
X136796476Y-132634390D01*
X136796476Y-132634390D02*
X136844095Y-132586771D01*
X136844095Y-132586771D02*
X136939333Y-132539152D01*
X136939333Y-132539152D02*
X137082190Y-132539152D01*
X137082190Y-132539152D02*
X137177428Y-132586771D01*
X137177428Y-132586771D02*
X137225047Y-132634390D01*
X137225047Y-132634390D02*
X137272666Y-132729628D01*
X137272666Y-132729628D02*
X137272666Y-133015342D01*
X137272666Y-133015342D02*
X137225047Y-133110580D01*
X137225047Y-133110580D02*
X137177428Y-133158200D01*
X137177428Y-133158200D02*
X137082190Y-133205819D01*
X137082190Y-133205819D02*
X136939333Y-133205819D01*
X137701238Y-132539152D02*
X137701238Y-133205819D01*
X137701238Y-132634390D02*
X137748857Y-132586771D01*
X137748857Y-132586771D02*
X137844095Y-132539152D01*
X137844095Y-132539152D02*
X137986952Y-132539152D01*
X137986952Y-132539152D02*
X138082190Y-132586771D01*
X138082190Y-132586771D02*
X138129809Y-132682009D01*
X138129809Y-132682009D02*
X138129809Y-133205819D01*
X138606000Y-132539152D02*
X138606000Y-133205819D01*
X138606000Y-132634390D02*
X138653619Y-132586771D01*
X138653619Y-132586771D02*
X138748857Y-132539152D01*
X138748857Y-132539152D02*
X138891714Y-132539152D01*
X138891714Y-132539152D02*
X138986952Y-132586771D01*
X138986952Y-132586771D02*
X139034571Y-132682009D01*
X139034571Y-132682009D02*
X139034571Y-133205819D01*
X139272667Y-133301057D02*
X140034571Y-133301057D01*
X140463143Y-132205819D02*
X140558381Y-132205819D01*
X140558381Y-132205819D02*
X140653619Y-132253438D01*
X140653619Y-132253438D02*
X140701238Y-132301057D01*
X140701238Y-132301057D02*
X140748857Y-132396295D01*
X140748857Y-132396295D02*
X140796476Y-132586771D01*
X140796476Y-132586771D02*
X140796476Y-132824866D01*
X140796476Y-132824866D02*
X140748857Y-133015342D01*
X140748857Y-133015342D02*
X140701238Y-133110580D01*
X140701238Y-133110580D02*
X140653619Y-133158200D01*
X140653619Y-133158200D02*
X140558381Y-133205819D01*
X140558381Y-133205819D02*
X140463143Y-133205819D01*
X140463143Y-133205819D02*
X140367905Y-133158200D01*
X140367905Y-133158200D02*
X140320286Y-133110580D01*
X140320286Y-133110580D02*
X140272667Y-133015342D01*
X140272667Y-133015342D02*
X140225048Y-132824866D01*
X140225048Y-132824866D02*
X140225048Y-132586771D01*
X140225048Y-132586771D02*
X140272667Y-132396295D01*
X140272667Y-132396295D02*
X140320286Y-132301057D01*
X140320286Y-132301057D02*
X140367905Y-132253438D01*
X140367905Y-132253438D02*
X140463143Y-132205819D01*
X141748857Y-133205819D02*
X141177429Y-133205819D01*
X141463143Y-133205819D02*
X141463143Y-132205819D01*
X141463143Y-132205819D02*
X141367905Y-132348676D01*
X141367905Y-132348676D02*
X141272667Y-132443914D01*
X141272667Y-132443914D02*
X141177429Y-132491533D01*
X142082191Y-133205819D02*
X142606000Y-132539152D01*
X142082191Y-132539152D02*
X142606000Y-133205819D01*
X143177429Y-132205819D02*
X143272667Y-132205819D01*
X143272667Y-132205819D02*
X143367905Y-132253438D01*
X143367905Y-132253438D02*
X143415524Y-132301057D01*
X143415524Y-132301057D02*
X143463143Y-132396295D01*
X143463143Y-132396295D02*
X143510762Y-132586771D01*
X143510762Y-132586771D02*
X143510762Y-132824866D01*
X143510762Y-132824866D02*
X143463143Y-133015342D01*
X143463143Y-133015342D02*
X143415524Y-133110580D01*
X143415524Y-133110580D02*
X143367905Y-133158200D01*
X143367905Y-133158200D02*
X143272667Y-133205819D01*
X143272667Y-133205819D02*
X143177429Y-133205819D01*
X143177429Y-133205819D02*
X143082191Y-133158200D01*
X143082191Y-133158200D02*
X143034572Y-133110580D01*
X143034572Y-133110580D02*
X142986953Y-133015342D01*
X142986953Y-133015342D02*
X142939334Y-132824866D01*
X142939334Y-132824866D02*
X142939334Y-132586771D01*
X142939334Y-132586771D02*
X142986953Y-132396295D01*
X142986953Y-132396295D02*
X143034572Y-132301057D01*
X143034572Y-132301057D02*
X143082191Y-132253438D01*
X143082191Y-132253438D02*
X143177429Y-132205819D01*
X144367905Y-132539152D02*
X144367905Y-133205819D01*
X144129810Y-132158200D02*
X143891715Y-132872485D01*
X143891715Y-132872485D02*
X144510762Y-132872485D01*
X139772666Y-130305819D02*
X139772666Y-131020104D01*
X139772666Y-131020104D02*
X139725047Y-131162961D01*
X139725047Y-131162961D02*
X139629809Y-131258200D01*
X139629809Y-131258200D02*
X139486952Y-131305819D01*
X139486952Y-131305819D02*
X139391714Y-131305819D01*
X140772666Y-131305819D02*
X140201238Y-131305819D01*
X140486952Y-131305819D02*
X140486952Y-130305819D01*
X140486952Y-130305819D02*
X140391714Y-130448676D01*
X140391714Y-130448676D02*
X140296476Y-130543914D01*
X140296476Y-130543914D02*
X140201238Y-130591533D01*
X117264404Y-133047080D02*
X117216785Y-133094700D01*
X117216785Y-133094700D02*
X117073928Y-133142319D01*
X117073928Y-133142319D02*
X116978690Y-133142319D01*
X116978690Y-133142319D02*
X116835833Y-133094700D01*
X116835833Y-133094700D02*
X116740595Y-132999461D01*
X116740595Y-132999461D02*
X116692976Y-132904223D01*
X116692976Y-132904223D02*
X116645357Y-132713747D01*
X116645357Y-132713747D02*
X116645357Y-132570890D01*
X116645357Y-132570890D02*
X116692976Y-132380414D01*
X116692976Y-132380414D02*
X116740595Y-132285176D01*
X116740595Y-132285176D02*
X116835833Y-132189938D01*
X116835833Y-132189938D02*
X116978690Y-132142319D01*
X116978690Y-132142319D02*
X117073928Y-132142319D01*
X117073928Y-132142319D02*
X117216785Y-132189938D01*
X117216785Y-132189938D02*
X117264404Y-132237557D01*
X117835833Y-133142319D02*
X117740595Y-133094700D01*
X117740595Y-133094700D02*
X117692976Y-133047080D01*
X117692976Y-133047080D02*
X117645357Y-132951842D01*
X117645357Y-132951842D02*
X117645357Y-132666128D01*
X117645357Y-132666128D02*
X117692976Y-132570890D01*
X117692976Y-132570890D02*
X117740595Y-132523271D01*
X117740595Y-132523271D02*
X117835833Y-132475652D01*
X117835833Y-132475652D02*
X117978690Y-132475652D01*
X117978690Y-132475652D02*
X118073928Y-132523271D01*
X118073928Y-132523271D02*
X118121547Y-132570890D01*
X118121547Y-132570890D02*
X118169166Y-132666128D01*
X118169166Y-132666128D02*
X118169166Y-132951842D01*
X118169166Y-132951842D02*
X118121547Y-133047080D01*
X118121547Y-133047080D02*
X118073928Y-133094700D01*
X118073928Y-133094700D02*
X117978690Y-133142319D01*
X117978690Y-133142319D02*
X117835833Y-133142319D01*
X118597738Y-132475652D02*
X118597738Y-133142319D01*
X118597738Y-132570890D02*
X118645357Y-132523271D01*
X118645357Y-132523271D02*
X118740595Y-132475652D01*
X118740595Y-132475652D02*
X118883452Y-132475652D01*
X118883452Y-132475652D02*
X118978690Y-132523271D01*
X118978690Y-132523271D02*
X119026309Y-132618509D01*
X119026309Y-132618509D02*
X119026309Y-133142319D01*
X119502500Y-132475652D02*
X119502500Y-133142319D01*
X119502500Y-132570890D02*
X119550119Y-132523271D01*
X119550119Y-132523271D02*
X119645357Y-132475652D01*
X119645357Y-132475652D02*
X119788214Y-132475652D01*
X119788214Y-132475652D02*
X119883452Y-132523271D01*
X119883452Y-132523271D02*
X119931071Y-132618509D01*
X119931071Y-132618509D02*
X119931071Y-133142319D01*
X120169167Y-133237557D02*
X120931071Y-133237557D01*
X121359643Y-132142319D02*
X121454881Y-132142319D01*
X121454881Y-132142319D02*
X121550119Y-132189938D01*
X121550119Y-132189938D02*
X121597738Y-132237557D01*
X121597738Y-132237557D02*
X121645357Y-132332795D01*
X121645357Y-132332795D02*
X121692976Y-132523271D01*
X121692976Y-132523271D02*
X121692976Y-132761366D01*
X121692976Y-132761366D02*
X121645357Y-132951842D01*
X121645357Y-132951842D02*
X121597738Y-133047080D01*
X121597738Y-133047080D02*
X121550119Y-133094700D01*
X121550119Y-133094700D02*
X121454881Y-133142319D01*
X121454881Y-133142319D02*
X121359643Y-133142319D01*
X121359643Y-133142319D02*
X121264405Y-133094700D01*
X121264405Y-133094700D02*
X121216786Y-133047080D01*
X121216786Y-133047080D02*
X121169167Y-132951842D01*
X121169167Y-132951842D02*
X121121548Y-132761366D01*
X121121548Y-132761366D02*
X121121548Y-132523271D01*
X121121548Y-132523271D02*
X121169167Y-132332795D01*
X121169167Y-132332795D02*
X121216786Y-132237557D01*
X121216786Y-132237557D02*
X121264405Y-132189938D01*
X121264405Y-132189938D02*
X121359643Y-132142319D01*
X122645357Y-133142319D02*
X122073929Y-133142319D01*
X122359643Y-133142319D02*
X122359643Y-132142319D01*
X122359643Y-132142319D02*
X122264405Y-132285176D01*
X122264405Y-132285176D02*
X122169167Y-132380414D01*
X122169167Y-132380414D02*
X122073929Y-132428033D01*
X122978691Y-133142319D02*
X123502500Y-132475652D01*
X122978691Y-132475652D02*
X123502500Y-133142319D01*
X124073929Y-132142319D02*
X124169167Y-132142319D01*
X124169167Y-132142319D02*
X124264405Y-132189938D01*
X124264405Y-132189938D02*
X124312024Y-132237557D01*
X124312024Y-132237557D02*
X124359643Y-132332795D01*
X124359643Y-132332795D02*
X124407262Y-132523271D01*
X124407262Y-132523271D02*
X124407262Y-132761366D01*
X124407262Y-132761366D02*
X124359643Y-132951842D01*
X124359643Y-132951842D02*
X124312024Y-133047080D01*
X124312024Y-133047080D02*
X124264405Y-133094700D01*
X124264405Y-133094700D02*
X124169167Y-133142319D01*
X124169167Y-133142319D02*
X124073929Y-133142319D01*
X124073929Y-133142319D02*
X123978691Y-133094700D01*
X123978691Y-133094700D02*
X123931072Y-133047080D01*
X123931072Y-133047080D02*
X123883453Y-132951842D01*
X123883453Y-132951842D02*
X123835834Y-132761366D01*
X123835834Y-132761366D02*
X123835834Y-132523271D01*
X123835834Y-132523271D02*
X123883453Y-132332795D01*
X123883453Y-132332795D02*
X123931072Y-132237557D01*
X123931072Y-132237557D02*
X123978691Y-132189938D01*
X123978691Y-132189938D02*
X124073929Y-132142319D01*
X125264405Y-132475652D02*
X125264405Y-133142319D01*
X125026310Y-132094700D02*
X124788215Y-132808985D01*
X124788215Y-132808985D02*
X125407262Y-132808985D01*
X120669166Y-130242319D02*
X120669166Y-130956604D01*
X120669166Y-130956604D02*
X120621547Y-131099461D01*
X120621547Y-131099461D02*
X120526309Y-131194700D01*
X120526309Y-131194700D02*
X120383452Y-131242319D01*
X120383452Y-131242319D02*
X120288214Y-131242319D01*
X121669166Y-131242319D02*
X121097738Y-131242319D01*
X121383452Y-131242319D02*
X121383452Y-130242319D01*
X121383452Y-130242319D02*
X121288214Y-130385176D01*
X121288214Y-130385176D02*
X121192976Y-130480414D01*
X121192976Y-130480414D02*
X121097738Y-130528033D01*
X155598404Y-115985080D02*
X155550785Y-116032700D01*
X155550785Y-116032700D02*
X155407928Y-116080319D01*
X155407928Y-116080319D02*
X155312690Y-116080319D01*
X155312690Y-116080319D02*
X155169833Y-116032700D01*
X155169833Y-116032700D02*
X155074595Y-115937461D01*
X155074595Y-115937461D02*
X155026976Y-115842223D01*
X155026976Y-115842223D02*
X154979357Y-115651747D01*
X154979357Y-115651747D02*
X154979357Y-115508890D01*
X154979357Y-115508890D02*
X155026976Y-115318414D01*
X155026976Y-115318414D02*
X155074595Y-115223176D01*
X155074595Y-115223176D02*
X155169833Y-115127938D01*
X155169833Y-115127938D02*
X155312690Y-115080319D01*
X155312690Y-115080319D02*
X155407928Y-115080319D01*
X155407928Y-115080319D02*
X155550785Y-115127938D01*
X155550785Y-115127938D02*
X155598404Y-115175557D01*
X156169833Y-116080319D02*
X156074595Y-116032700D01*
X156074595Y-116032700D02*
X156026976Y-115985080D01*
X156026976Y-115985080D02*
X155979357Y-115889842D01*
X155979357Y-115889842D02*
X155979357Y-115604128D01*
X155979357Y-115604128D02*
X156026976Y-115508890D01*
X156026976Y-115508890D02*
X156074595Y-115461271D01*
X156074595Y-115461271D02*
X156169833Y-115413652D01*
X156169833Y-115413652D02*
X156312690Y-115413652D01*
X156312690Y-115413652D02*
X156407928Y-115461271D01*
X156407928Y-115461271D02*
X156455547Y-115508890D01*
X156455547Y-115508890D02*
X156503166Y-115604128D01*
X156503166Y-115604128D02*
X156503166Y-115889842D01*
X156503166Y-115889842D02*
X156455547Y-115985080D01*
X156455547Y-115985080D02*
X156407928Y-116032700D01*
X156407928Y-116032700D02*
X156312690Y-116080319D01*
X156312690Y-116080319D02*
X156169833Y-116080319D01*
X156931738Y-115413652D02*
X156931738Y-116080319D01*
X156931738Y-115508890D02*
X156979357Y-115461271D01*
X156979357Y-115461271D02*
X157074595Y-115413652D01*
X157074595Y-115413652D02*
X157217452Y-115413652D01*
X157217452Y-115413652D02*
X157312690Y-115461271D01*
X157312690Y-115461271D02*
X157360309Y-115556509D01*
X157360309Y-115556509D02*
X157360309Y-116080319D01*
X157836500Y-115413652D02*
X157836500Y-116080319D01*
X157836500Y-115508890D02*
X157884119Y-115461271D01*
X157884119Y-115461271D02*
X157979357Y-115413652D01*
X157979357Y-115413652D02*
X158122214Y-115413652D01*
X158122214Y-115413652D02*
X158217452Y-115461271D01*
X158217452Y-115461271D02*
X158265071Y-115556509D01*
X158265071Y-115556509D02*
X158265071Y-116080319D01*
X158503167Y-116175557D02*
X159265071Y-116175557D01*
X159693643Y-115080319D02*
X159788881Y-115080319D01*
X159788881Y-115080319D02*
X159884119Y-115127938D01*
X159884119Y-115127938D02*
X159931738Y-115175557D01*
X159931738Y-115175557D02*
X159979357Y-115270795D01*
X159979357Y-115270795D02*
X160026976Y-115461271D01*
X160026976Y-115461271D02*
X160026976Y-115699366D01*
X160026976Y-115699366D02*
X159979357Y-115889842D01*
X159979357Y-115889842D02*
X159931738Y-115985080D01*
X159931738Y-115985080D02*
X159884119Y-116032700D01*
X159884119Y-116032700D02*
X159788881Y-116080319D01*
X159788881Y-116080319D02*
X159693643Y-116080319D01*
X159693643Y-116080319D02*
X159598405Y-116032700D01*
X159598405Y-116032700D02*
X159550786Y-115985080D01*
X159550786Y-115985080D02*
X159503167Y-115889842D01*
X159503167Y-115889842D02*
X159455548Y-115699366D01*
X159455548Y-115699366D02*
X159455548Y-115461271D01*
X159455548Y-115461271D02*
X159503167Y-115270795D01*
X159503167Y-115270795D02*
X159550786Y-115175557D01*
X159550786Y-115175557D02*
X159598405Y-115127938D01*
X159598405Y-115127938D02*
X159693643Y-115080319D01*
X160979357Y-116080319D02*
X160407929Y-116080319D01*
X160693643Y-116080319D02*
X160693643Y-115080319D01*
X160693643Y-115080319D02*
X160598405Y-115223176D01*
X160598405Y-115223176D02*
X160503167Y-115318414D01*
X160503167Y-115318414D02*
X160407929Y-115366033D01*
X161312691Y-116080319D02*
X161836500Y-115413652D01*
X161312691Y-115413652D02*
X161836500Y-116080319D01*
X162407929Y-115080319D02*
X162503167Y-115080319D01*
X162503167Y-115080319D02*
X162598405Y-115127938D01*
X162598405Y-115127938D02*
X162646024Y-115175557D01*
X162646024Y-115175557D02*
X162693643Y-115270795D01*
X162693643Y-115270795D02*
X162741262Y-115461271D01*
X162741262Y-115461271D02*
X162741262Y-115699366D01*
X162741262Y-115699366D02*
X162693643Y-115889842D01*
X162693643Y-115889842D02*
X162646024Y-115985080D01*
X162646024Y-115985080D02*
X162598405Y-116032700D01*
X162598405Y-116032700D02*
X162503167Y-116080319D01*
X162503167Y-116080319D02*
X162407929Y-116080319D01*
X162407929Y-116080319D02*
X162312691Y-116032700D01*
X162312691Y-116032700D02*
X162265072Y-115985080D01*
X162265072Y-115985080D02*
X162217453Y-115889842D01*
X162217453Y-115889842D02*
X162169834Y-115699366D01*
X162169834Y-115699366D02*
X162169834Y-115461271D01*
X162169834Y-115461271D02*
X162217453Y-115270795D01*
X162217453Y-115270795D02*
X162265072Y-115175557D01*
X162265072Y-115175557D02*
X162312691Y-115127938D01*
X162312691Y-115127938D02*
X162407929Y-115080319D01*
X163598405Y-115413652D02*
X163598405Y-116080319D01*
X163360310Y-115032700D02*
X163122215Y-115746985D01*
X163122215Y-115746985D02*
X163741262Y-115746985D01*
X159003166Y-113180319D02*
X159003166Y-113894604D01*
X159003166Y-113894604D02*
X158955547Y-114037461D01*
X158955547Y-114037461D02*
X158860309Y-114132700D01*
X158860309Y-114132700D02*
X158717452Y-114180319D01*
X158717452Y-114180319D02*
X158622214Y-114180319D01*
X160003166Y-114180319D02*
X159431738Y-114180319D01*
X159717452Y-114180319D02*
X159717452Y-113180319D01*
X159717452Y-113180319D02*
X159622214Y-113323176D01*
X159622214Y-113323176D02*
X159526976Y-113418414D01*
X159526976Y-113418414D02*
X159431738Y-113466033D01*
X117391404Y-98776580D02*
X117343785Y-98824200D01*
X117343785Y-98824200D02*
X117200928Y-98871819D01*
X117200928Y-98871819D02*
X117105690Y-98871819D01*
X117105690Y-98871819D02*
X116962833Y-98824200D01*
X116962833Y-98824200D02*
X116867595Y-98728961D01*
X116867595Y-98728961D02*
X116819976Y-98633723D01*
X116819976Y-98633723D02*
X116772357Y-98443247D01*
X116772357Y-98443247D02*
X116772357Y-98300390D01*
X116772357Y-98300390D02*
X116819976Y-98109914D01*
X116819976Y-98109914D02*
X116867595Y-98014676D01*
X116867595Y-98014676D02*
X116962833Y-97919438D01*
X116962833Y-97919438D02*
X117105690Y-97871819D01*
X117105690Y-97871819D02*
X117200928Y-97871819D01*
X117200928Y-97871819D02*
X117343785Y-97919438D01*
X117343785Y-97919438D02*
X117391404Y-97967057D01*
X117962833Y-98871819D02*
X117867595Y-98824200D01*
X117867595Y-98824200D02*
X117819976Y-98776580D01*
X117819976Y-98776580D02*
X117772357Y-98681342D01*
X117772357Y-98681342D02*
X117772357Y-98395628D01*
X117772357Y-98395628D02*
X117819976Y-98300390D01*
X117819976Y-98300390D02*
X117867595Y-98252771D01*
X117867595Y-98252771D02*
X117962833Y-98205152D01*
X117962833Y-98205152D02*
X118105690Y-98205152D01*
X118105690Y-98205152D02*
X118200928Y-98252771D01*
X118200928Y-98252771D02*
X118248547Y-98300390D01*
X118248547Y-98300390D02*
X118296166Y-98395628D01*
X118296166Y-98395628D02*
X118296166Y-98681342D01*
X118296166Y-98681342D02*
X118248547Y-98776580D01*
X118248547Y-98776580D02*
X118200928Y-98824200D01*
X118200928Y-98824200D02*
X118105690Y-98871819D01*
X118105690Y-98871819D02*
X117962833Y-98871819D01*
X118724738Y-98205152D02*
X118724738Y-98871819D01*
X118724738Y-98300390D02*
X118772357Y-98252771D01*
X118772357Y-98252771D02*
X118867595Y-98205152D01*
X118867595Y-98205152D02*
X119010452Y-98205152D01*
X119010452Y-98205152D02*
X119105690Y-98252771D01*
X119105690Y-98252771D02*
X119153309Y-98348009D01*
X119153309Y-98348009D02*
X119153309Y-98871819D01*
X119629500Y-98205152D02*
X119629500Y-98871819D01*
X119629500Y-98300390D02*
X119677119Y-98252771D01*
X119677119Y-98252771D02*
X119772357Y-98205152D01*
X119772357Y-98205152D02*
X119915214Y-98205152D01*
X119915214Y-98205152D02*
X120010452Y-98252771D01*
X120010452Y-98252771D02*
X120058071Y-98348009D01*
X120058071Y-98348009D02*
X120058071Y-98871819D01*
X120296167Y-98967057D02*
X121058071Y-98967057D01*
X121486643Y-97871819D02*
X121581881Y-97871819D01*
X121581881Y-97871819D02*
X121677119Y-97919438D01*
X121677119Y-97919438D02*
X121724738Y-97967057D01*
X121724738Y-97967057D02*
X121772357Y-98062295D01*
X121772357Y-98062295D02*
X121819976Y-98252771D01*
X121819976Y-98252771D02*
X121819976Y-98490866D01*
X121819976Y-98490866D02*
X121772357Y-98681342D01*
X121772357Y-98681342D02*
X121724738Y-98776580D01*
X121724738Y-98776580D02*
X121677119Y-98824200D01*
X121677119Y-98824200D02*
X121581881Y-98871819D01*
X121581881Y-98871819D02*
X121486643Y-98871819D01*
X121486643Y-98871819D02*
X121391405Y-98824200D01*
X121391405Y-98824200D02*
X121343786Y-98776580D01*
X121343786Y-98776580D02*
X121296167Y-98681342D01*
X121296167Y-98681342D02*
X121248548Y-98490866D01*
X121248548Y-98490866D02*
X121248548Y-98252771D01*
X121248548Y-98252771D02*
X121296167Y-98062295D01*
X121296167Y-98062295D02*
X121343786Y-97967057D01*
X121343786Y-97967057D02*
X121391405Y-97919438D01*
X121391405Y-97919438D02*
X121486643Y-97871819D01*
X122772357Y-98871819D02*
X122200929Y-98871819D01*
X122486643Y-98871819D02*
X122486643Y-97871819D01*
X122486643Y-97871819D02*
X122391405Y-98014676D01*
X122391405Y-98014676D02*
X122296167Y-98109914D01*
X122296167Y-98109914D02*
X122200929Y-98157533D01*
X123105691Y-98871819D02*
X123629500Y-98205152D01*
X123105691Y-98205152D02*
X123629500Y-98871819D01*
X124200929Y-97871819D02*
X124296167Y-97871819D01*
X124296167Y-97871819D02*
X124391405Y-97919438D01*
X124391405Y-97919438D02*
X124439024Y-97967057D01*
X124439024Y-97967057D02*
X124486643Y-98062295D01*
X124486643Y-98062295D02*
X124534262Y-98252771D01*
X124534262Y-98252771D02*
X124534262Y-98490866D01*
X124534262Y-98490866D02*
X124486643Y-98681342D01*
X124486643Y-98681342D02*
X124439024Y-98776580D01*
X124439024Y-98776580D02*
X124391405Y-98824200D01*
X124391405Y-98824200D02*
X124296167Y-98871819D01*
X124296167Y-98871819D02*
X124200929Y-98871819D01*
X124200929Y-98871819D02*
X124105691Y-98824200D01*
X124105691Y-98824200D02*
X124058072Y-98776580D01*
X124058072Y-98776580D02*
X124010453Y-98681342D01*
X124010453Y-98681342D02*
X123962834Y-98490866D01*
X123962834Y-98490866D02*
X123962834Y-98252771D01*
X123962834Y-98252771D02*
X124010453Y-98062295D01*
X124010453Y-98062295D02*
X124058072Y-97967057D01*
X124058072Y-97967057D02*
X124105691Y-97919438D01*
X124105691Y-97919438D02*
X124200929Y-97871819D01*
X125391405Y-98205152D02*
X125391405Y-98871819D01*
X125153310Y-97824200D02*
X124915215Y-98538485D01*
X124915215Y-98538485D02*
X125534262Y-98538485D01*
X120796166Y-95971819D02*
X120796166Y-96686104D01*
X120796166Y-96686104D02*
X120748547Y-96828961D01*
X120748547Y-96828961D02*
X120653309Y-96924200D01*
X120653309Y-96924200D02*
X120510452Y-96971819D01*
X120510452Y-96971819D02*
X120415214Y-96971819D01*
X121796166Y-96971819D02*
X121224738Y-96971819D01*
X121510452Y-96971819D02*
X121510452Y-95971819D01*
X121510452Y-95971819D02*
X121415214Y-96114676D01*
X121415214Y-96114676D02*
X121319976Y-96209914D01*
X121319976Y-96209914D02*
X121224738Y-96257533D01*
X98287904Y-98776580D02*
X98240285Y-98824200D01*
X98240285Y-98824200D02*
X98097428Y-98871819D01*
X98097428Y-98871819D02*
X98002190Y-98871819D01*
X98002190Y-98871819D02*
X97859333Y-98824200D01*
X97859333Y-98824200D02*
X97764095Y-98728961D01*
X97764095Y-98728961D02*
X97716476Y-98633723D01*
X97716476Y-98633723D02*
X97668857Y-98443247D01*
X97668857Y-98443247D02*
X97668857Y-98300390D01*
X97668857Y-98300390D02*
X97716476Y-98109914D01*
X97716476Y-98109914D02*
X97764095Y-98014676D01*
X97764095Y-98014676D02*
X97859333Y-97919438D01*
X97859333Y-97919438D02*
X98002190Y-97871819D01*
X98002190Y-97871819D02*
X98097428Y-97871819D01*
X98097428Y-97871819D02*
X98240285Y-97919438D01*
X98240285Y-97919438D02*
X98287904Y-97967057D01*
X98859333Y-98871819D02*
X98764095Y-98824200D01*
X98764095Y-98824200D02*
X98716476Y-98776580D01*
X98716476Y-98776580D02*
X98668857Y-98681342D01*
X98668857Y-98681342D02*
X98668857Y-98395628D01*
X98668857Y-98395628D02*
X98716476Y-98300390D01*
X98716476Y-98300390D02*
X98764095Y-98252771D01*
X98764095Y-98252771D02*
X98859333Y-98205152D01*
X98859333Y-98205152D02*
X99002190Y-98205152D01*
X99002190Y-98205152D02*
X99097428Y-98252771D01*
X99097428Y-98252771D02*
X99145047Y-98300390D01*
X99145047Y-98300390D02*
X99192666Y-98395628D01*
X99192666Y-98395628D02*
X99192666Y-98681342D01*
X99192666Y-98681342D02*
X99145047Y-98776580D01*
X99145047Y-98776580D02*
X99097428Y-98824200D01*
X99097428Y-98824200D02*
X99002190Y-98871819D01*
X99002190Y-98871819D02*
X98859333Y-98871819D01*
X99621238Y-98205152D02*
X99621238Y-98871819D01*
X99621238Y-98300390D02*
X99668857Y-98252771D01*
X99668857Y-98252771D02*
X99764095Y-98205152D01*
X99764095Y-98205152D02*
X99906952Y-98205152D01*
X99906952Y-98205152D02*
X100002190Y-98252771D01*
X100002190Y-98252771D02*
X100049809Y-98348009D01*
X100049809Y-98348009D02*
X100049809Y-98871819D01*
X100526000Y-98205152D02*
X100526000Y-98871819D01*
X100526000Y-98300390D02*
X100573619Y-98252771D01*
X100573619Y-98252771D02*
X100668857Y-98205152D01*
X100668857Y-98205152D02*
X100811714Y-98205152D01*
X100811714Y-98205152D02*
X100906952Y-98252771D01*
X100906952Y-98252771D02*
X100954571Y-98348009D01*
X100954571Y-98348009D02*
X100954571Y-98871819D01*
X101192667Y-98967057D02*
X101954571Y-98967057D01*
X102383143Y-97871819D02*
X102478381Y-97871819D01*
X102478381Y-97871819D02*
X102573619Y-97919438D01*
X102573619Y-97919438D02*
X102621238Y-97967057D01*
X102621238Y-97967057D02*
X102668857Y-98062295D01*
X102668857Y-98062295D02*
X102716476Y-98252771D01*
X102716476Y-98252771D02*
X102716476Y-98490866D01*
X102716476Y-98490866D02*
X102668857Y-98681342D01*
X102668857Y-98681342D02*
X102621238Y-98776580D01*
X102621238Y-98776580D02*
X102573619Y-98824200D01*
X102573619Y-98824200D02*
X102478381Y-98871819D01*
X102478381Y-98871819D02*
X102383143Y-98871819D01*
X102383143Y-98871819D02*
X102287905Y-98824200D01*
X102287905Y-98824200D02*
X102240286Y-98776580D01*
X102240286Y-98776580D02*
X102192667Y-98681342D01*
X102192667Y-98681342D02*
X102145048Y-98490866D01*
X102145048Y-98490866D02*
X102145048Y-98252771D01*
X102145048Y-98252771D02*
X102192667Y-98062295D01*
X102192667Y-98062295D02*
X102240286Y-97967057D01*
X102240286Y-97967057D02*
X102287905Y-97919438D01*
X102287905Y-97919438D02*
X102383143Y-97871819D01*
X103668857Y-98871819D02*
X103097429Y-98871819D01*
X103383143Y-98871819D02*
X103383143Y-97871819D01*
X103383143Y-97871819D02*
X103287905Y-98014676D01*
X103287905Y-98014676D02*
X103192667Y-98109914D01*
X103192667Y-98109914D02*
X103097429Y-98157533D01*
X104002191Y-98871819D02*
X104526000Y-98205152D01*
X104002191Y-98205152D02*
X104526000Y-98871819D01*
X105097429Y-97871819D02*
X105192667Y-97871819D01*
X105192667Y-97871819D02*
X105287905Y-97919438D01*
X105287905Y-97919438D02*
X105335524Y-97967057D01*
X105335524Y-97967057D02*
X105383143Y-98062295D01*
X105383143Y-98062295D02*
X105430762Y-98252771D01*
X105430762Y-98252771D02*
X105430762Y-98490866D01*
X105430762Y-98490866D02*
X105383143Y-98681342D01*
X105383143Y-98681342D02*
X105335524Y-98776580D01*
X105335524Y-98776580D02*
X105287905Y-98824200D01*
X105287905Y-98824200D02*
X105192667Y-98871819D01*
X105192667Y-98871819D02*
X105097429Y-98871819D01*
X105097429Y-98871819D02*
X105002191Y-98824200D01*
X105002191Y-98824200D02*
X104954572Y-98776580D01*
X104954572Y-98776580D02*
X104906953Y-98681342D01*
X104906953Y-98681342D02*
X104859334Y-98490866D01*
X104859334Y-98490866D02*
X104859334Y-98252771D01*
X104859334Y-98252771D02*
X104906953Y-98062295D01*
X104906953Y-98062295D02*
X104954572Y-97967057D01*
X104954572Y-97967057D02*
X105002191Y-97919438D01*
X105002191Y-97919438D02*
X105097429Y-97871819D01*
X106287905Y-98205152D02*
X106287905Y-98871819D01*
X106049810Y-97824200D02*
X105811715Y-98538485D01*
X105811715Y-98538485D02*
X106430762Y-98538485D01*
X101692666Y-95971819D02*
X101692666Y-96686104D01*
X101692666Y-96686104D02*
X101645047Y-96828961D01*
X101645047Y-96828961D02*
X101549809Y-96924200D01*
X101549809Y-96924200D02*
X101406952Y-96971819D01*
X101406952Y-96971819D02*
X101311714Y-96971819D01*
X102692666Y-96971819D02*
X102121238Y-96971819D01*
X102406952Y-96971819D02*
X102406952Y-95971819D01*
X102406952Y-95971819D02*
X102311714Y-96114676D01*
X102311714Y-96114676D02*
X102216476Y-96209914D01*
X102216476Y-96209914D02*
X102121238Y-96257533D01*
D11*
%TO.C,J1*%
X134043000Y-108672000D02*
X134043000Y-114422000D01*
X134043000Y-114422000D02*
X146443000Y-114422000D01*
X146443000Y-114422000D02*
X146443000Y-108672000D01*
X146443000Y-108672000D02*
X134043000Y-108672000D01*
X135868000Y-108672000D02*
X136493000Y-109672000D01*
X136493000Y-109672000D02*
X137118000Y-108672000D01*
X153220000Y-91527000D02*
X153220000Y-97277000D01*
X153220000Y-97277000D02*
X165620000Y-97277000D01*
X165620000Y-97277000D02*
X165620000Y-91527000D01*
X165620000Y-91527000D02*
X153220000Y-91527000D01*
X155045000Y-91527000D02*
X155670000Y-92527000D01*
X155670000Y-92527000D02*
X156295000Y-91527000D01*
X134043000Y-91527000D02*
X134043000Y-97277000D01*
X134043000Y-97277000D02*
X146443000Y-97277000D01*
X146443000Y-97277000D02*
X146443000Y-91527000D01*
X146443000Y-91527000D02*
X134043000Y-91527000D01*
X135868000Y-91527000D02*
X136493000Y-92527000D01*
X136493000Y-92527000D02*
X137118000Y-91527000D01*
X114929500Y-108608500D02*
X114929500Y-114358500D01*
X114929500Y-114358500D02*
X127329500Y-114358500D01*
X127329500Y-114358500D02*
X127329500Y-108608500D01*
X127329500Y-108608500D02*
X114929500Y-108608500D01*
X116754500Y-108608500D02*
X117379500Y-109608500D01*
X117379500Y-109608500D02*
X118004500Y-108608500D01*
X95699000Y-125715500D02*
X95699000Y-131465500D01*
X95699000Y-131465500D02*
X108099000Y-131465500D01*
X108099000Y-131465500D02*
X108099000Y-125715500D01*
X108099000Y-125715500D02*
X95699000Y-125715500D01*
X97524000Y-125715500D02*
X98149000Y-126715500D01*
X98149000Y-126715500D02*
X98774000Y-125715500D01*
X95826000Y-108570500D02*
X95826000Y-114320500D01*
X95826000Y-114320500D02*
X108226000Y-114320500D01*
X108226000Y-114320500D02*
X108226000Y-108570500D01*
X108226000Y-108570500D02*
X95826000Y-108570500D01*
X97651000Y-108570500D02*
X98276000Y-109570500D01*
X98276000Y-109570500D02*
X98901000Y-108570500D01*
X153009500Y-125737500D02*
X153009500Y-131487500D01*
X153009500Y-131487500D02*
X165409500Y-131487500D01*
X165409500Y-131487500D02*
X165409500Y-125737500D01*
X165409500Y-125737500D02*
X153009500Y-125737500D01*
X154834500Y-125737500D02*
X155459500Y-126737500D01*
X155459500Y-126737500D02*
X156084500Y-125737500D01*
X133906000Y-125801000D02*
X133906000Y-131551000D01*
X133906000Y-131551000D02*
X146306000Y-131551000D01*
X146306000Y-131551000D02*
X146306000Y-125801000D01*
X146306000Y-125801000D02*
X133906000Y-125801000D01*
X135731000Y-125801000D02*
X136356000Y-126801000D01*
X136356000Y-126801000D02*
X136981000Y-125801000D01*
X114802500Y-125737500D02*
X114802500Y-131487500D01*
X114802500Y-131487500D02*
X127202500Y-131487500D01*
X127202500Y-131487500D02*
X127202500Y-125737500D01*
X127202500Y-125737500D02*
X114802500Y-125737500D01*
X116627500Y-125737500D02*
X117252500Y-126737500D01*
X117252500Y-126737500D02*
X117877500Y-125737500D01*
X153136500Y-108675500D02*
X153136500Y-114425500D01*
X153136500Y-114425500D02*
X165536500Y-114425500D01*
X165536500Y-114425500D02*
X165536500Y-108675500D01*
X165536500Y-108675500D02*
X153136500Y-108675500D01*
X154961500Y-108675500D02*
X155586500Y-109675500D01*
X155586500Y-109675500D02*
X156211500Y-108675500D01*
X114929500Y-91467000D02*
X114929500Y-97217000D01*
X114929500Y-97217000D02*
X127329500Y-97217000D01*
X127329500Y-97217000D02*
X127329500Y-91467000D01*
X127329500Y-91467000D02*
X114929500Y-91467000D01*
X116754500Y-91467000D02*
X117379500Y-92467000D01*
X117379500Y-92467000D02*
X118004500Y-91467000D01*
X95826000Y-91467000D02*
X95826000Y-97217000D01*
X95826000Y-97217000D02*
X108226000Y-97217000D01*
X108226000Y-97217000D02*
X108226000Y-91467000D01*
X108226000Y-91467000D02*
X95826000Y-91467000D01*
X97651000Y-91467000D02*
X98276000Y-92467000D01*
X98276000Y-92467000D02*
X98901000Y-91467000D01*
%TD*%
M02*
